<svg xmlns="http://www.w3.org/2000/svg" viewBox="0 0 395.59 117.46"><defs><style>.cls-1,.cls-4{fill:#ba131a;}.cls-1,.cls-3{fill-rule:evenodd;}.cls-2{fill:#484748;}.cls-3{fill:#ba2025;}</style></defs><title>Recurso 1</title><g id="Capa_2" data-name="Capa 2"><g id="Layer_1" data-name="Layer 1"><polyline class="cls-1" points="194.22 115.46 193.59 117.46 3.05 117.46 3.66 115.46"/><path class="cls-2" d="M10.82,93.8,6,109.81H4.21l4.84-16Z"/><path class="cls-2" d="M10.21,109.82l4.84-16h1.7l.78,8.65c.15,1.62.29,3.12.33,4.59h.05c.43-1.73.82-3.61,1.39-5.48l2.37-7.75h1.54l-4.8,16h-1.6l-.87-8.34a46.89,46.89,0,0,1-.29-5H15.6c-.37,1.64-.93,3.68-1.5,5.58l-2.31,7.72Z"/><path class="cls-2" d="M28.76,95.45h-3l.49-1.6,7.75,0-.49,1.59h-3l-4.35,14.42H24.41Z"/><path class="cls-2" d="M40.39,102.25H36.31l-1.85,6.1,4.67,0-.48,1.54-6.42,0,4.83-16h6.13l-.46,1.52H38.38l-1.65,5.37h4.11Z"/><path class="cls-2" d="M46.76,94.07a16.71,16.71,0,0,1,2.64-.23,3.77,3.77,0,0,1,2.89,1A3.16,3.16,0,0,1,53,97.34a5.86,5.86,0,0,1-4,4.89v0c1,.38,1.34,1.5,1.14,3.59a26.55,26.55,0,0,0-.15,4.06h-1.8a29.29,29.29,0,0,1,.25-4c.16-2.23-.29-3.09-1.79-3.1h-.79l-2.1,7.06H42Zm-.48,7.41h.86a4.25,4.25,0,0,0,3.94-4c.13-1.24-.33-2.21-1.93-2.22a3.21,3.21,0,0,0-1,.12Z"/><path class="cls-2" d="M53,109.94l4.83-16h1.7l.78,8.65c.15,1.62.29,3.12.33,4.59h.05c.43-1.73.83-3.61,1.39-5.48L64.47,94H66l-4.81,16h-1.6l-.87-8.35a49.31,49.31,0,0,1-.29-5H58.4c-.37,1.64-.93,3.68-1.5,5.58L54.59,110Z"/><path class="cls-2" d="M68.9,105.14,66.37,110H64.6l8.55-16h2L74,110H72.23l.39-4.85Zm3.86-1.35.36-4.16c.1-1.11.26-2.47.39-3.68h-.07c-.58,1.23-1.19,2.64-1.77,3.7l-2.13,4.13Z"/><path class="cls-2" d="M81.86,95.59h-3L79.35,94l7.75,0-.49,1.59h-3L79.29,110H77.52Z"/><path class="cls-2" d="M91.94,94l-4.83,16H85.34l4.83-16Z"/><path class="cls-2" d="M103,99.05c-.31,3-2,7.79-4.36,9.86a4.8,4.8,0,0,1-3.24,1.34c-3.2,0-3.19-3.36-3-5.07.33-3.07,2-7.86,4.5-10a4.93,4.93,0,0,1,3.21-1.3C103.25,93.87,103.22,97,103,99.05Zm-5-2.93c-2,1.77-3.55,6.59-3.8,9-.14,1.35-.31,3.61,1.59,3.62a2.48,2.48,0,0,0,1.57-.69c2.12-1.87,3.53-7.12,3.72-8.93s.26-3.68-1.46-3.68A2.49,2.49,0,0,0,98.05,96.12Z"/><path class="cls-2" d="M103.42,110.08l4.83-16H110l.79,8.66c.15,1.61.28,3.11.33,4.58h0c.43-1.73.83-3.61,1.39-5.48l2.37-7.75h1.55l-4.81,16H110l-.87-8.34a49.7,49.7,0,0,1-.29-5h0c-.37,1.64-.92,3.68-1.49,5.58L105,110.09Z"/><path class="cls-2" d="M119.3,105.28l-2.52,4.84H115l8.55-16h2l-1.17,16h-1.72l.39-4.85Zm3.86-1.35.36-4.15c.1-1.12.26-2.47.39-3.69h-.07c-.58,1.24-1.19,2.64-1.77,3.71l-2.13,4.13Z"/><path class="cls-2" d="M132.33,94.14h1.78l-4.38,14.49h4.55l-.46,1.52-6.32,0Z"/><path class="cls-3" d="M394,16.37c-9.16-21.9-56.95-21.79-106.57.11-5.62,2.48-11,5.14-16.19,7.93l-9.82,42.8q-2,8.6,8.78,8.6t12.71-8.6l6.41-27.93h15.05L298,67.21Q294,84.42,276.85,84.41h-17.2q-17.19,0-13.25-17.2l7.31-32.15c-29.68,20.2-46.35,44.15-39.4,60.48,7.69,18.07,41.8,21.14,81.52,9.18l15-65.44h34.39q17.2,0,13.26,17.19L356,67.21q-3.94,17.21-21.14,17.2H315.54L312.26,99q4.31-1.69,8.63-3.59C370.51,73.54,403.31,38.16,394,16.37Z"/><path class="cls-3" d="M341,67.21l2.47-10.74q2-8.59-8.79-8.59H323.91l-6.4,27.93h10.75Q339,75.81,341,67.21Z"/><path class="cls-4" d="M49.06,41.91,31.18,42Q18.67,42,14,60.12T21.9,78.24l17.88,0-1.86,7.27-21.45,0q-21.46,0-15-25.36t28-25.45l21.45-.05Z"/><path class="cls-4" d="M57.13,70.91q-1.86,7.26,7.08,7.24l-1.86,7.26H55.2q-14.31,0-10.59-14.48l9.28-36.3,12.51,0Z"/><path class="cls-4" d="M76.47,85.38q-14.31,0-10.6-14.49l2.33-9.07q3.7-14.52,18-14.55l16.1,0q12.5,0,8.8,14.48l-2.32,9.07q-3.72,14.53-18,14.56ZM98.59,61.75q1.86-7.26-7.09-7.24T80.72,61.79l-2.33,9.07q-1.85,7.26,7.08,7.24t10.8-7.28Z"/><path class="cls-4" d="M139.63,61.66q16.1,0,13.31,10.85l-.47,1.82q-2.78,10.88-18.88,10.92l-26.81.06,1.85-7.26,25,0Q139,78,140,74.35l.46-1.81q.93-3.63-4.43-3.62l-8.94,0Q111,69,113.74,58.09t18.87-10.92l26.82-.06-1.85,7.26-25,.05c-3.58,0-5.67,1.23-6.29,3.64s.86,3.63,4.43,3.62Z"/><path class="cls-4" d="M159.39,58q2.79-10.89,17.1-10.92L189,47q16.09,0,13.31,10.85l-.47,1.82Q199.07,70.6,183,70.63l-8.94,0q-5.37,0-6.3,3.64c-.61,2.42.86,3.63,4.44,3.62l25,0-1.86,7.25-26.82.06q-16.08,0-13.07-11.75Zm11.08,5.6a32.32,32.32,0,0,1,3.62-.19l8.95,0c3.57,0,5.67-1.22,6.29-3.65l.46-1.81c.62-2.42-.86-3.62-4.43-3.62l-7.16,0c-3.57,0-5.68,1.25-6.31,3.72Z"/><polyline class="cls-1" points="238.83 65.44 238.73 71.78 206.92 71.78 207.02 65.44"/></g></g></svg>